<svg id="logo" xmlns="http://www.w3.org/2000/svg" viewBox="0 0 283.46 283.46" fill="currentColor"><path d="M244.25,205a61.83,61.83,0,0,0,10.17-34.39c0-30.89-21.42-55.93-47.86-55.93a41,41,0,0,0-7.12.69L141.73,0,83.93,115.61a41.87,41.87,0,0,0-8.26-.89c-26.43,0-47.85,25-47.85,55.93a61.7,61.7,0,0,0,10.85,35.47L0,283.46H38.86l28.65-57.75a41.61,41.61,0,0,0,8.16.87,42.24,42.24,0,0,0,21.91-6.24l0,0,.31-.2,2.47-1.67L159,179l.24-.16h0L184,161.36l.11-.08L197.19,152c8.16-5.77,18.79-2.71,23.73,6.83s2.32,21.94-5.84,27.72l-13.68,9.67L216,225.48h0l29,58h38.44ZM123,162.22h0l-.06,0L104.4,174.77c-5.74,3.88-11.34,8.13-17.31,11.47l-.35.2c-8,4.39-16.88,4.26-20.89-5.45-2.61-6.31-2.66-16.74.14-22.79,4.17-9,12.81-9.95,21-5,3.81,2.3,7.61,4.64,12.45,7.6l13-26a1.47,1.47,0,0,1,.1.13l27-54.36c.69-1.37,1.36-2.73,2.05-4.12l27.36,54.71-17.83,12.05Z"/></g></g></svg>
